<svg width="2749" height="1652" xmlns="http://www.w3.org/2000/svg" xmlns:xlink="http://www.w3.org/1999/xlink" xml:space="preserve" overflow="hidden"><g transform="translate(-826 -422)"><rect x="2980.5" y="1071.5" width="584" height="333" stroke="#FFC000" stroke-width="20.625" stroke-linejoin="round" stroke-miterlimit="10" fill="#F2F2F2"/><text fill="#FFC000" font-family="Arial,Arial_MSFontService,sans-serif" font-weight="700" font-size="83" transform="matrix(1 0 0 1 3047.27 1167)">Processors</text><text fill="#FFC000" font-family="Arial,Arial_MSFontService,sans-serif" font-weight="400" font-size="83" transform="matrix(1 0 0 1 3090.81 1266)">max profit</text><text fill="#FFC000" font-family="Arial,Arial_MSFontService,sans-serif" font-weight="400" font-size="83" transform="matrix(1 0 0 1 3054.14 1365)">s.t. capacity</text><rect x="2265.5" y="1075.5" width="585" height="334" stroke="#91056A" stroke-width="20.625" stroke-linejoin="round" stroke-miterlimit="10" fill="#F2F2F2"/><text fill="#91056A" font-family="Arial,Arial_MSFontService,sans-serif" font-weight="700" font-size="83" transform="matrix(1 0 0 1 2305.19 1172)">Transporters</text><text fill="#91056A" font-family="Arial,Arial_MSFontService,sans-serif" font-weight="400" font-size="83" transform="matrix(1 0 0 1 2376.23 1271)">max profit</text><text fill="#91056A" font-family="Arial,Arial_MSFontService,sans-serif" font-weight="400" font-size="83" transform="matrix(1 0 0 1 2339.56 1370)">s.t. capacity</text><rect x="836.5" y="1083.5" width="584" height="333" stroke="#FF0000" stroke-width="20.625" stroke-linejoin="round" stroke-miterlimit="10" fill="#F2F2F2"/><text fill="#FF0000" font-family="Arial,Arial_MSFontService,sans-serif" font-weight="700" font-size="83" transform="matrix(1 0 0 1 940.233 1179)">Suppliers</text><text fill="#FF0000" font-family="Arial,Arial_MSFontService,sans-serif" font-weight="400" font-size="83" transform="matrix(1 0 0 1 947.108 1278)">max profit</text><text fill="#FF0000" font-family="Arial,Arial_MSFontService,sans-serif" font-weight="400" font-size="83" transform="matrix(1 0 0 1 910.441 1377)">s.t. capacity</text><rect x="1550.5" y="1084.5" width="585" height="333" stroke="#0070C0" stroke-width="20.625" stroke-linejoin="round" stroke-miterlimit="10" fill="#F2F2F2"/><text fill="#0070C0" font-family="Arial,Arial_MSFontService,sans-serif" font-weight="700" font-size="83" transform="matrix(1 0 0 1 1615.84 1180)">Consumers</text><text fill="#0070C0" font-family="Arial,Arial_MSFontService,sans-serif" font-weight="400" font-size="83" transform="matrix(1 0 0 1 1661.67 1279)">max profit</text><text fill="#0070C0" font-family="Arial,Arial_MSFontService,sans-serif" font-weight="400" font-size="83" transform="matrix(1 0 0 1 1625.01 1378)">s.t. capacity</text><rect x="1550" y="1713" width="1300" height="325" stroke="#956013" stroke-width="27.5" stroke-miterlimit="8" fill="#F2F2F2"/><text fill="#956013" font-family="Arial,Arial_MSFontService,sans-serif" font-weight="700" font-size="83" transform="matrix(1 0 0 1 1631.67 1807)">ISO (economic dual clearing)</text><text fill="#956013" font-family="Arial,Arial_MSFontService,sans-serif" font-weight="400" font-size="83" transform="matrix(1 0 0 1 1833.33 1906)">min capacity margin</text><text fill="#956013" font-family="Arial,Arial_MSFontService,sans-serif" font-weight="400" font-size="83" transform="matrix(1 0 0 1 1721.04 2005)">s.t. economic driving force</text><rect x="1550" y="436" width="1300" height="325" stroke="#000000" stroke-width="27.5" stroke-miterlimit="8" fill="#F2F2F2"/><text font-family="Arial,Arial_MSFontService,sans-serif" font-weight="700" font-size="83" transform="matrix(1 0 0 1 1620.21 530)">ISO (physical primal clearing)</text><text font-family="Arial,Arial_MSFontService,sans-serif" font-weight="400" font-size="83" transform="matrix(1 0 0 1 1860.83 629)">max social welfare</text><text font-family="Arial,Arial_MSFontService,sans-serif" font-weight="400" font-size="83" transform="matrix(1 0 0 1 1815 728)">s.t. balance, capacity</text><path d="M2078.81 824.5 2078.81 967.82 2058.19 967.82 2058.19 824.5ZM2099.44 957.507 2068.5 1019.38 2037.56 957.507Z"/><path d="M10.3125-1.90972e-05 10.3128 143.319-10.3122 143.319-10.3125 1.90972e-05ZM30.9377 133.007 0.000360892 194.882-30.9373 133.007Z" transform="matrix(1 0 0 -1 2327.5 1019.38)"/><text font-family="Arial,Arial_MSFontService,sans-serif" font-weight="400" font-size="83" transform="matrix(1 0 0 1 1302.76 956)">resource allocation</text><text font-family="Arial,Arial_MSFontService,sans-serif" font-weight="400" font-size="83" transform="matrix(1 0 0 1 2396.87 904)">bidding information </text><text font-family="Arial,Arial_MSFontService,sans-serif" font-weight="400" font-size="83" transform="matrix(1 0 0 1 2448.06 1003)">(capacity, value)</text><path d="M10.3125-1.90972e-05 10.3128 143.319-10.3122 143.319-10.3125 1.90972e-05ZM30.9377 133.007 0.000360892 194.882-30.9373 133.007Z" fill="#956013" transform="matrix(-1 0 0 1 2325.5 1465.5)"/><path d="M2057.19 1660.38 2057.19 1517.06 2077.81 1517.06 2077.81 1660.38ZM2036.56 1527.38 2067.5 1465.5 2098.44 1527.37Z" fill="#956013"/><text fill="#956013" font-family="Arial,Arial_MSFontService,sans-serif" font-weight="400" font-size="83" transform="matrix(1 0 0 1 1184.78 1592)">market clearing prices</text><text fill="#956013" font-family="Arial,Arial_MSFontService,sans-serif" font-weight="400" font-size="83" transform="matrix(1 0 0 1 2396.87 1542)">bidding information </text><text fill="#956013" font-family="Arial,Arial_MSFontService,sans-serif" font-weight="400" font-size="83" transform="matrix(1 0 0 1 2448.06 1641)">(capacity, value)</text></g></svg>